<?xml version="1.0" encoding="utf-8"?>
<!-- Generator: Adobe Illustrator 17.0.0, SVG Export Plug-In . SVG Version: 6.00 Build 0)  -->
<!DOCTYPE svg PUBLIC "-//W3C//DTD SVG 1.1//EN" "http://www.w3.org/Graphics/SVG/1.1/DTD/svg11.dtd">
<svg version="1.1" id="Слой_1" xmlns="http://www.w3.org/2000/svg" xmlns:xlink="http://www.w3.org/1999/xlink" x="0px" y="0px"
	 width="20px" height="20px" viewBox="0 0 2000 2000" enable-background="new 0 0 2000 2000" xml:space="preserve">
<path fill-rule="evenodd" clip-rule="evenodd" fill="#67ADE4" d="M1212.175,527.005c145.342,0,263.489,118.265,263.489,263.526
	c0,29.076,23.611,52.689,52.727,52.689c29.102,0,52.687-23.613,52.687-52.689c0-203.441-165.5-368.94-368.904-368.94
	c-29.102,0-52.688,23.625-52.688,52.725C1159.488,503.391,1183.073,527.005,1212.175,527.005z"/>
<path fill-rule="evenodd" clip-rule="evenodd" fill="#67ADE4" d="M1212.175,105.375c377.769,0,685.12,307.39,685.12,685.156
	c0,29.076,23.624,52.689,52.726,52.689c29.063,0,52.687-23.613,52.687-52.689C2002.709,354.585,1648.123,0,1212.175,0
	c-29.102,0-52.688,23.621-52.688,52.685C1159.488,81.789,1183.073,105.375,1212.175,105.375z"/>
<path fill-rule="evenodd" clip-rule="evenodd" fill="#67ADE4" d="M1844.607,1318.577c-123.56,0-244.537-19.28-359.232-57.102
	c-54.895-19.212-122.6-1.806-156.31,33.073l-227.391,171.719c-260.868-139.228-427.809-306.09-565.168-565.049L703.59,679.226
	c42.057-42.085,57.114-103.612,39.11-161.269c-38.188-115.425-57.581-236.557-57.581-359.857C685.119,70.935,614.181,0,527.017,0
	H158.114C70.937,0,0,70.935,0,158.1c0,1017.015,827.514,1844.532,1844.607,1844.532c87.164,0,158.102-70.9,158.102-158.076v-367.867
	C2002.709,1389.552,1931.771,1318.577,1844.607,1318.577z"/>
</svg>
